<?xml version="1.0" encoding="utf-8"?>
<!-- Generator: Adobe Illustrator 21.1.0, SVG Export Plug-In . SVG Version: 6.00 Build 0)  -->
<svg version="1.1" id="Layer_1" xmlns="http://www.w3.org/2000/svg" xmlns:xlink="http://www.w3.org/1999/xlink" x="0px" y="0px"
	 viewBox="0 0 512 512" style="enable-background:new 0 0 512 512;" xml:space="preserve">
<style type="text/css">
	.st0{fill:#1D1D1D;}
	.st1{fill:#A5CBC3;}
	.st2{fill:#D60D0D;}
	.st3{fill:#442608;}
	.st4{fill:#FFFFFF;}
	.st5{fill:#F1F3F3;}
</style>
<g id="Layer_1_1_">
	<g transform="translate(1 1)">
		<g>
			<g>
				<path class="st0" d="M511,268c0-13.3-7.6-24.9-18.7-30.8c-11.4-124-116-220.9-241.7-220.9c-46.6,0-91.7,13.4-130.5,39.5
					c-11.2-29.2-31.9-48.2-56-48.2C27.6,7.7-1,51.1-1,107.5c0,29.8,8.3,56.4,21.6,74.6c-8.4,24.5-12.9,50.5-12.9,77.2
					c0,40.7,10.8,81.4,29.9,117.2c-0.9,6.6-1.9,13.3-3,19.9l-7.8,52.9c-1.7,6.1-1.7,13,0,19.1l0.9,1.7c4.3,19.1,21.7,32.1,40.8,32.1
					s36.4-13,41.7-32.1l0.9-1.7c0.5-3.2,0.7-6.4,0.6-9.6c40.9,28.4,89.3,43.5,139.1,43.5c117.8,0,219.7-86.5,239.5-202.5
					C502.4,294.5,511,282.2,511,268z M64.1,25c26,0,47.7,37.3,47.7,82.4c0,31.6-11,60-26.8,73.8h-0.1l-3.5,1.7
					c-11.3,7.8-23.4,8.7-34.7,0.9l-2.4-1.6c-0.3-0.3-0.7-0.6-1-0.8c-15.8-13.7-26.9-42.2-26.9-73.9C16.4,62.3,38.1,25,64.1,25z
					 M33.7,196L33.7,196c8.7,48.6,10.4,98.1,6.9,146.6C30.2,316.6,25,288,25,259.3C25,237.7,27.6,216.8,33.7,196z M93.6,464.1
					l-0.9,1.7c-3.5,11.3-13,19.1-24.3,19.1s-20.8-7.8-23.4-19.1l-0.9-1.7c-0.9-3.5-0.9-6.9,0-11.3l7.8-52.9c1.3-8,2.4-15.9,3.4-23.9
					c0-0.1,0.1-0.3,0.1-0.4c0.2-1.9,0.4-3.9,0.6-5.8c6.1-54.9,5-109.6-2.3-163.8c3.4,0.8,6.8,1.2,10.3,1.2c7,0,13.6-1.6,19.9-4.6
					c-7.9,55.2-9.2,110.3-3.3,165c1.1,10.8,2.5,21.5,4.2,32.3l6.1,39.9c0,1.1,0.3,2.2,1,3.3l1.6,9.7
					C94.5,456.3,94.5,460.7,93.6,464.1z M250.7,485c-51.7,0-101.7-18-142.3-50.5l-6.1-37.1c-5.3-32.1-7.9-64.5-8-96.8
					c-0.1-36.5,2.9-72.9,8.9-108.9l0.8-4.9c15.4-18.2,25.2-46.8,25.2-79.3c0-0.2,0-0.3,0-0.5c0-0.1,0-0.3,0-0.4c0-0.2,0-0.4,0-0.6
					c0-1.2,0-2.3-0.1-3.5c0-0.1,0-0.1,0-0.2c-0.3-10.8-1.7-21-4-30.6c37.3-25.1,80.6-38,125.6-38c114.5,0,210.9,86.8,223.9,199.6
					H387c-12.3-64-68.9-112.8-136.4-112.8c-76.4,0-138.8,62.5-138.8,138.8s62.5,138.8,138.8,138.8c61.2,0,113.5-40.2,131.9-95.5
					h89.4C452,407.7,358.3,485,250.7,485z M371.3,259.3c0,10.4-1.7,21.7-4.3,32.1c-0.4,1.2-0.4,2.4-0.2,3.6
					c-15.3,49.6-61.7,85.8-116.1,85.8c-66.8,0-121.5-54.7-121.5-121.5s54.7-121.5,121.5-121.5c60.1,0,110.4,44.3,119.9,101.9
					c-0.1,1-0.1,2.1-0.1,3.2C371.3,248.9,371.3,254.1,371.3,259.3z M482.5,284.2c-0.7,0-1.3,0.1-1.9,0.3c-1,0.5-1.9,0.7-2.7,0.8
					c-0.5,0-1.1,0.1-1.6,0.1H387c1.4-7.4,2.3-15,2.4-22.7c0-1.1,0-2.2,0-3.3c0-2.6,0-6.1,0-8.7h86.8c0.9,0,1.8,0.1,2.6,0.2
					c0.9,0.2,2.2,0.2,3.1,1c1,0.3,1.4,0.9,2.4,0.8c5.5,2.9,9.3,8.7,9.3,15.3C493.6,275.4,489,281.7,482.5,284.2z"/>
				<path class="st0" d="M250.7,155.2c-57.3,0-104.1,46.9-104.1,104.1s46.9,104.1,104.1,104.1s104.1-46.9,104.1-104.1
					S307.9,155.2,250.7,155.2z M250.7,346.1c-47.7,0-86.8-39.1-86.8-86.8s39.1-86.8,86.8-86.8s86.8,39.1,86.8,86.8
					S298.4,346.1,250.7,346.1z"/>
			</g>
		</g>
	</g>
	<path class="st1" d="M130.2,103.4c0-0.1,0-0.1,0-0.2c-0.3-10.8-1.7-21-4-30.6c37.3-25.1,80.6-38,125.6-38
		c114.5,0,210.9,86.8,223.9,199.6h-87.6c-12.3-64-68.9-112.8-136.4-112.8c-76.4,0-138.8,62.5-138.8,138.8S175.4,399,251.7,399
		c61.2,0,113.5-40.2,131.9-95.5H473C453.1,408.7,359.4,486,251.8,486c-51.7,0-101.7-18-142.3-50.5l-6.1-37.1
		c-5.3-32.1-7.9-64.5-8-96.8c-0.1-36.5,2.9-72.9,8.9-108.9l0.8-4.9c15.4-18.2,25.2-46.8,25.2-79.3"/>
	<path class="st2" d="M130.3,107.5c0-0.2,0-0.4,0-0.6c0-1.2,0-2.3-0.1-3.5"/>
	<path class="st1" d="M34.5,196.4L34.5,196.4c8.8,49.1,10.5,99.1,7,148.1c-10.5-26.3-15.8-55.1-15.8-84.1
		C25.7,238.5,28.3,217.4,34.5,196.4z"/>
	<path class="st1" d="M483.8,285.2c-0.7,0-1.3,0.1-1.9,0.3c-1,0.5-1.9,0.7-2.7,0.8c-0.5,0-1.1,0.1-1.6,0.1h-89.3
		c1.4-7.4,2.3-15,2.4-22.7c0-1.1,0-2.2,0-3.3c0-2.6,0-6.1,0-8.7h86.8c0.9,0,1.8,0.1,2.6,0.2c0.9,0.2,2.2,0.2,3.1,1
		c1,0.3,1.4,0.9,2.4,0.8c5.5,2.9,9.3,8.7,9.3,15.3C494.9,276.4,490.2,282.7,483.8,285.2z"/>
	<path class="st1" d="M368.5,292.4c-0.4,1.2-0.4,2.4-0.2,3.6c-15.3,49.6-61.7,85.8-116.1,85.8c-66.8,0-121.5-54.7-121.5-121.5
		s54.7-121.5,121.5-121.5c60.1,0,110.4,44.3,119.9,101.9c-0.1,1-0.1,2.1-0.1,3.2c0.8,6,0.8,11.2,0.8,16.4
		C372.8,270.7,371,282,368.5,292.4"/>
	<path class="st0" d="M252.2,156.2c-57.3,0-104.1,46.9-104.1,104.1S195,364.4,252.2,364.4s104.1-46.9,104.1-104.1
		S309.4,156.2,252.2,156.2z"/>
	<path class="st3" d="M251.7,347.1c-47.7,0-86.8-39.1-86.8-86.8s39.1-86.8,86.8-86.8s86.8,39.1,86.8,86.8S299.4,347.1,251.7,347.1z"
		/>
	<path class="st0" d="M303.7,260.3c0,28.6-23.4,52.1-52.1,52.1c-5.2,0-8.7,3.5-8.7,8.7s3.5,8.7,8.7,8.7c38.2,0,69.4-31.2,69.4-69.4
		c0-5.2-3.5-8.7-8.7-8.7S303.7,255.1,303.7,260.3z"/>
	<path class="st0" d="M260.3,260.3v-26c0-19.1-15.6-34.7-34.7-34.7s-34.7,15.6-34.7,34.7s15.6,34.7,34.7,34.7h26
		C256.9,269,260.3,265.5,260.3,260.3z"/>
	<path class="st0" d="M243,251.7h-17.4c-9.5,0-17.4-7.8-17.4-17.4s7.8-17.4,17.4-17.4s17.4,7.8,17.4,17.4V251.7z"/>
	<path class="st4" d="M243,251.7h-17.4c-9.5,0-17.4-7.8-17.4-17.4c0-9.6,7.8-17.4,17.4-17.4s17.4,7.8,17.4,17.4V251.7z"/>
	<path class="st5" d="M94.5,465.3l-0.9,1.7c-3.5,11.3-13,19.1-24.3,19.1s-20.8-7.8-23.4-19.1l-0.9-1.7c-0.9-3.5-0.9-6.9,0-11.3
		l7.8-52.9c1.3-8,2.4-15.9,3.4-23.9c0-0.1,0.1-0.3,0.1-0.4c0.2-1.9,0.4-3.9,0.6-5.8c6.1-54.9,5-109.6-2.3-163.8
		c3.4,0.8,6.8,1.2,10.3,1.2c7,0,13.6-1.6,19.9-4.6c-7.9,55.2-9.2,110.3-3.3,165c1.1,10.8,2.5,21.5,4.2,32.3l6.1,39.9
		c0,1.1,0.3,2.2,1,3.3l1.6,9.7C95.4,457.5,95.4,461.9,94.5,465.3z"/>
	<path class="st5" d="M85.8,182.4L85.8,182.4l-3.6,1.7c-11.3,7.8-23.4,8.7-34.7,0.9l-2.4-1.6c-0.3-0.3-0.7-0.6-1-0.8
		c-15.8-13.7-26.9-42.2-26.9-73.9c0-45.2,21.7-82.5,47.7-82.5s47.7,37.3,47.7,82.4C112.6,140.2,101.6,168.6,85.8,182.4"/>
	<path class="st0" d="M60.7,173.6c12.1,0,34.7-29.5,34.7-69.4c0-5.2-3.5-8.7-8.7-8.7S78,99,78,104.2c0,32.1-15.6,49.5-20,52.1
		c-3.5,0.9-6.1,4.3-6.1,8.7C52.1,170.1,55.5,173.6,60.7,173.6z"/>
</g>
<g id="Layer_3">
</g>
<g id="Layer_4">
</g>
</svg>
