<?xml version="1.0" encoding="utf-8"?>
<!-- Generator: Adobe Illustrator 21.1.0, SVG Export Plug-In . SVG Version: 6.00 Build 0)  -->
<svg version="1.1" id="Layer_1" xmlns="http://www.w3.org/2000/svg" xmlns:xlink="http://www.w3.org/1999/xlink" x="0px" y="0px"
	 viewBox="0 0 512 512" style="enable-background:new 0 0 512 512;" xml:space="preserve">
<style type="text/css">
	.st0{fill:#1D1D1D;}
	.st1{fill:#D60D0D;}
	.st2{fill:#FFFFFF;}
	.st3{fill:#A5CBC3;}
</style>
<g id="Layer_1_1_">
	<g transform="translate(1 1)">
		<g>
			<g>
				<path class="st0" d="M475.7,12.2h-35.3h-18.5h-52.1h-17.7h-53h-17.7h-53h-17.7h-53H140H87H69.6H33.4C14,12.2-1,27.2-1,46.7v71.5
					c0,12.4,5.3,24.7,14.1,32.7c3.8,3.1,8,5.6,12.4,7.6v48.1v282.5c0,5.3,3.5,8.8,8.8,8.8h44.1H202h273.7c5.3,0,8.8-3.5,8.8-8.8
					V206.4l0,0v-48c15.5-7.4,26.5-23.9,26.5-42V46.7C511,27.2,496,12.2,475.7,12.2z M369.8,29.9h52.1v88.3c0,1.8,0.1,3.5,0.4,5.3
					c-2.3,12.3-12.8,21.2-26,21.2c-15,0-26.5-11.5-26.5-26.5V29.9z M299.1,29.9h53v88.3c0,15-11.5,26.5-26.5,26.5
					s-26.5-11.5-26.5-26.5V29.9z M228.5,29.9h53v88.3c0,15-11.5,26.5-26.5,26.5s-26.5-11.5-26.5-26.5V29.9z M157.9,29.9h53v88.3
					c0,15-11.5,26.5-26.5,26.5s-26.5-11.5-26.5-26.5V29.9z M87.3,29.9h53v88.3c0,15-11.5,26.5-26.5,26.5s-26.5-11.5-26.5-26.5v-1.8
					V29.9z M16.7,118.2V46.7c0-9.7,7.1-16.8,16.8-16.8h36.2v86.5c0,13.2-9.3,24.9-21.3,27.8c-1.3,0.2-2.7,0.4-4,0.5
					c-6.7-0.2-13.9-2.1-18.8-7C20.2,133.2,16.7,125.2,16.7,118.2z M47.6,162.3c3.5-0.4,6.9-1.3,10.1-2.5c8.3-2.9,15.6-8.2,20.7-15
					c8,10.7,20.8,17.5,35.4,17.5s27.3-6.8,35.3-17.4c8,10.6,20.7,17.4,35.3,17.4s27.3-6.8,35.3-17.4c8,10.6,20.7,17.4,35.3,17.4
					s27.3-6.8,35.3-17.4c8,10.6,20.7,17.4,35.3,17.4s27.3-6.8,35.3-17.4c8,10.6,20.7,17.4,35.3,17.4c14.5,0,27.2-6.7,35.2-17.3
					c1.6,2.1,3.4,4.1,5.4,5.8c1.4,1.1,2.9,2.2,4.4,3.2c6.2,4.4,13.7,7.3,21.6,8.1c0.1,0,0.1,0,0.2,0c0.5,0,1.1,0.1,1.6,0.1
					c0.7,0,1.5,0.1,2.2,0.1v35.3H43.1v-35.3C44.9,162.3,45.8,162.3,47.6,162.3z M87.3,480.1V250.6h105.9v123.6h-17.7
					c-5.3,0-8.8,3.5-8.8,8.8s3.5,8.8,8.8,8.8h17.7v88.3L87.3,480.1L87.3,480.1z M466.9,480.1h-256V241.8c0-5.3-3.5-8.8-8.8-8.8H78.4
					c-5.3,0-8.8,3.5-8.8,8.8v238.3H43.1V215.3h423.7L466.9,480.1L466.9,480.1z M493.3,116.4c0,13-8,23.4-18.8,27.1
					c-0.5,0-1,0.1-1.5,0.3c-1.3,0.6-3.1,0.8-4.6,0.9c-6.8-0.2-14.2-2-19.2-7c-5.3-4.4-8.8-12.4-8.8-19.4V29.9h36.2
					c9.7,0,16.8,7.9,16.8,16.8L493.3,116.4L493.3,116.4z"/>
				<path class="st0" d="M246.2,444.8h44.1h105.9h44.1c5.3,0,8.8-3.5,8.8-8.8V241.8c0-5.3-3.5-8.8-8.8-8.8h-53H299h-53
					c-5.3,0-8.8,3.5-8.8,8.8V436C237.3,441.3,240.9,444.8,246.2,444.8z M369.8,400.7c5.3,0,8.8-3.5,8.8-8.8s-3.5-8.8-8.8-8.8h-53
					c-5.3,0-8.8,3.5-8.8,8.8s3.5,8.8,8.8,8.8h17.7v26.5h-35.6c-1.7-31.4-12.7-57.7-28.9-70.6c20.8-17.5,36.1-57,37.8-105.9h70.9
					c1.6,48.9,16.1,88.4,37.8,105.9c-16.2,12.9-27.1,39.2-28.9,70.6H352v-26.5H369.8z M431.6,427.1h-26.5
					c2.6-30,14.1-52.1,26.5-59.1V427.1z M431.6,250.6V345c-17.7-9.7-33.5-45-35.3-94.5L431.6,250.6L431.6,250.6z M255,250.6h35.3
					c-1.8,49.4-18.5,84.7-35.3,94.5L255,250.6L255,250.6z M255,368c13.2,7.1,24.7,29.1,26.5,59.1H255V368z"/>
			</g>
		</g>
	</g>
	<path class="st1" d="M88.3,117.9V31.4h53v88.3c0,15-11.5,26.5-26.5,26.5s-26.5-11.5-26.5-26.5V117.9"/>
	<path class="st2" d="M158.8,117.9V31.4h53v88.3c0,15-11.5,26.5-26.5,26.5s-26.5-11.5-26.5-26.5V117.9"/>
	<path class="st1" d="M230.3,117.9V31.4h53v88.3c0,15-11.5,26.5-26.5,26.5s-26.5-11.5-26.5-26.5L230.3,117.9"/>
	<path class="st1" d="M371.3,117.9V31.4h53v88.3c0,15-11.5,26.5-26.5,26.5s-26.5-11.5-26.5-26.5V117.9"/>
	<path class="st2" d="M300.8,117.9V31.4h53v88.3c0,15-11.5,26.5-26.5,26.5s-26.5-11.5-26.5-26.5V117.9"/>
	<path class="st2" d="M49.4,145.7c-1.3,0.2-2.7,0.4-4,0.5c-6.7-0.2-13.9-2.1-18.8-7c-5.4-4.5-8.9-12.5-8.9-19.5V48.2
		c0-9.7,7.1-16.8,16.8-16.8h36.2v86.5C70.7,131.1,61.4,142.8,49.4,145.7"/>
	<path class="st2" d="M495.3,117.9L495.3,117.9c0,13-8,23.4-18.8,27.1"/>
	<path class="st2" d="M476.5,145c-0.5,0-1,0.1-1.5,0.3c-1.3,0.6-3.1,0.8-4.6,0.9c-6.8-0.2-14.2-2-19.2-7c-5.3-4.4-8.8-12.4-8.8-19.4
		V31.4h36.2c9.7,0,16.8,7.9,16.8,16.8l-0.1,69.7"/>
	<path class="st2" d="M467.8,481.1L467.8,481.1H211.9V242.8c0-5.3-3.5-8.8-8.8-8.8H79.4c-5.3,0-8.8,3.5-8.8,8.8v238.3H44.1V216.3
		h423.7L467.8,481.1"/>
	<path class="st0" d="M247.2,445.7h44.1h105.9h44.1c5.3,0,8.8-3.5,8.8-8.8V242.7c0-5.3-3.5-8.8-8.8-8.8h-53H300h-53
		c-5.3,0-8.8,3.5-8.8,8.8v194.2C238.3,442.2,241.9,445.7,247.2,445.7z M370.8,401.6c5.3,0,8.8-3.5,8.8-8.8s-3.5-8.8-8.8-8.8h-53
		c-5.3,0-8.8,3.5-8.8,8.8s3.5,8.8,8.8,8.8h17.7v26.5h-35.6c-1.7-31.4-12.7-57.7-28.9-70.6c20.8-17.5,36.1-57,37.8-105.9h70.9
		c1.6,48.9,16.1,88.4,37.8,105.9c-16.2,12.9-27.1,39.2-28.9,70.6H353v-26.5H370.8z M432.6,428h-26.5c2.6-30,14.1-52.1,26.5-59.1V428
		z M432.6,251.5v94.4c-17.7-9.7-33.5-45-35.3-94.5L432.6,251.5L432.6,251.5z M256,251.5h35.3c-1.8,49.4-18.5,84.7-35.3,94.5
		L256,251.5L256,251.5z M256,368.9c13.2,7.1,24.7,29.1,26.5,59.1H256V368.9z"/>
	<path class="st3" d="M465.6,163.1c0.7,0,1.5,0.1,2.2,0.1v35.3H44.2v-35.3c1.8,0,2.7,0,4.5,0c3.5-0.4,6.9-1.3,10.1-2.5
		c8.3-2.9,15.6-8.2,20.7-15c8,10.7,20.8,17.5,35.4,17.5s27.3-6.8,35.3-17.4c8,10.6,20.7,17.4,35.3,17.4s27.3-6.8,35.3-17.4
		c8,10.6,20.7,17.4,35.3,17.4s27.3-6.8,35.3-17.4c8,10.6,20.7,17.4,35.3,17.4s27.3-6.8,35.3-17.4c8,10.6,20.7,17.4,35.3,17.4
		c14.5,0,27.2-6.7,35.2-17.3c1.6,2.1,3.4,4.1,5.4,5.8c1.4,1.1,2.9,2.2,4.4,3.2c6.2,4.4,13.7,7.3,21.6,8.1"/>
	<path class="st1" d="M88.3,481.1L88.3,481.1V251.6h105.9v123.6h-17.7c-5.3,0-8.8,3.5-8.8,8.8s3.5,8.8,8.8,8.8h17.7v88.3L88.3,481.1
		"/>
	<path class="st1" d="M432.5,428.1H406c2.6-30,14.1-52.1,26.5-59.1V428.1z"/>
	<path class="st1" d="M432.5,251.6L432.5,251.6V346c-17.7-9.7-33.5-45-35.3-94.5L432.5,251.6"/>
	<path class="st1" d="M255.8,251.6L255.8,251.6h35.3c-1.8,49.4-18.5,84.7-35.3,94.5V251.6"/>
	<path class="st1" d="M255.8,369c13.2,7.1,24.7,29.1,26.5,59.1h-26.5L255.8,369L255.8,369z"/>
</g>
<g id="Layer_2">
	<path class="st0" d="M176.6,331v-53c0-5.3-3.5-8.8-8.8-8.8h-53c-5.3,0-8.8,3.5-8.8,8.8v53c0,5.3,3.5,8.8,8.8,8.8h53
		C173,339.9,176.6,336.3,176.6,331z M158.9,322.2h-35.3v-35.3h35.3V322.2z"/>
	<rect x="123.7" y="286.9" class="st2" width="35.3" height="35.3"/>
</g>
</svg>
