<?xml version="1.0" encoding="utf-8"?>
<!-- Generator: Adobe Illustrator 21.1.0, SVG Export Plug-In . SVG Version: 6.00 Build 0)  -->
<svg version="1.1" id="Layer_1" xmlns="http://www.w3.org/2000/svg" xmlns:xlink="http://www.w3.org/1999/xlink" x="0px" y="0px"
	 viewBox="0 0 612 792" style="enable-background:new 0 0 612 792;" xml:space="preserve">
<style type="text/css">
	.st0{fill:#F1F3F3;stroke:#F1F3F3;stroke-miterlimit:10;}
	.st1{fill:#A5CBC3;stroke:#A5CBC3;stroke-miterlimit:10;}
	.st2{clip-path:url(#SVGID_2_);}
	.st3{clip-path:url(#SVGID_4_);}
	.st4{clip-path:url(#SVGID_6_);}
</style>
<path class="st0" d="M398.4,267.8L398.4,267.8c25.6,23.3,42.8,55.9,44.9,79.4l0.5,7c-1,7.3-3,12.7-7.5,15.6
	c-21.8,15-69.4,12.5-109.5-18.5c-24.5-18.7-40.6-45.1-43.9-68.9v-9.8c0-2.3,0.2-4.8,0.5-7c1.2-7,4-12.7,8.1-17.5
	c0.5-0.5,0.8-1,1.2-1.5l0.2-0.2c0.5-0.5,1-0.8,1.2-1.2l0,0c1.5-1.2,3.3-2.5,4.8-3.7l0,0c0.5-0.2,0.8-0.5,1.2-0.8
	c4.2-2.3,9-3.7,14.5-4.8l9.5-1.5C348.3,234.4,376.9,247,398.4,267.8"/>
<path class="st1" d="M128.7,494.8L128.7,494.8h400.9c-0.8,117.7-26,226.5-200.4,226.5S129.4,612.3,128.7,494.8"/>
<path class="st1" d="M542.4,747L542.4,747l-116.7,7.8c-8.7,0.8-16.6,6-20.8,14c-1.7,2.5-4.2,4.2-7,4.2H252.3c-2.5,0-5.2-1.7-7-4.2
	c-4.2-7.7-12.3-13.1-20.8-14l-109-7.7c-4.2-0.8-4.2-2.5-4.2-3.5c0-2.5,2.5-5.2,5.2-5.2h425.2c2.5,0,5.2,2.5,5.2,5.2
	C546.7,744.4,546.7,746.3,542.4,747"/>
<g>
	<g>
		<g>
			<g>
				<g>
					<defs>
						<polyline id="SVGID_1_" points="466.8,436.6 431.3,-25.4 4.8,7.2 40.4,469.4 						"/>
					</defs>
					<clipPath id="SVGID_2_">
						<use xlink:href="#SVGID_1_"  style="overflow:visible;"/>
					</clipPath>
					<path class="st2" d="M267.1,280c0,0.8,0,1.5,1,1.5c3,29.1,21,59.1,49.7,81.5c46.1,35.8,101.5,38.1,127.7,18.5
						c8.3-5.2,13.1-15.2,13.7-27c1.7-28.5-17.8-68.9-49.3-98.7c-25.6-24.1-58.9-38.1-87.9-36.6c-2.5,0.2-5.2,0.5-7.7,1l-25.8-15
						c-70.7-45.8-130-99-177.1-158.6l-8.7-12L88.8,18.9C79.2,8.7,66.3,3.4,52.2,3.7c-13.3,0.2-24.9,6.5-32.6,16.7
						c-7.3,9.3-10.2,21.2-9.3,33.1l0.2,3.3c1.7,12.5,9,24.5,19.1,31.8l16.6,11.2l0.8,0.8c82.7,37,155.6,94,211.5,164.6l8.7,10.8
						C266.8,277.2,266.8,278.4,267.1,280L267.1,280z M397.8,267.8c25.6,23.3,42.8,55.9,44.9,79.4l0.5,7c-1,7.3-3,12.7-7.5,15.6
						c-21.8,15-69.4,12.5-109.5-18.5c-24.5-18.7-40.6-45.1-43.9-68.9v-9.8c0-2.3,0.2-4.8,0.5-7c1.2-7,4-12.7,8.1-17.5
						c0.5-0.5,0.8-1,1.2-1.5l0.2-0.2c0.5-0.5,1-0.8,1.2-1.2l0,0c1.5-1.2,3.3-2.5,4.8-3.7l0,0c0.5-0.2,0.8-0.5,1.2-0.8
						c4.2-2.3,9-3.7,14.5-4.8l9.5-1.5C347.7,234.4,376.4,247,397.8,267.8L397.8,267.8z M53.5,86.6L37.7,76.1
						c-6-5-10.6-12.5-11.8-21.2c-1.5-8.5,1-17.5,6-24.1c5-6,11.8-9.5,20.6-10.2c9.5-0.8,18.3,3.3,25.3,10l13.1,14.8l8.1,11.2
						c48.9,60.9,110,115.4,182.1,162.1l13.3,7.7c-6,2.7-10.6,6.2-15,11.5c-3.5,5-7,10.8-9,16.6C212.3,182.5,137.6,124.1,53.5,86.6
						L53.5,86.6z"/>
				</g>
			</g>
		</g>
	</g>
	<path d="M298.4,275.9c1.2,15,11.8,40.8,38.9,63.4c3.3,3,8.1,2.5,11-0.8c3-3.3,2.5-8.1-0.8-11c-24.5-21-32.6-43.3-33.3-52.6
		c-0.2-4.8-3.7-7.5-8.5-7.3C300.9,268,298,271.5,298.4,275.9L298.4,275.9z"/>
</g>
<g>
	<g>
		<g>
			<g>
				<g>
					<defs>
						<polyline id="SVGID_3_" points="597.3,432.3 591.4,791.6 93,791.6 93,468.9 						"/>
					</defs>
					<clipPath id="SVGID_4_">
						<use xlink:href="#SVGID_3_"  style="overflow:visible;"/>
					</clipPath>
					<path class="st3" d="M540.2,720.7H434c27-10.8,47.8-26.4,63.6-44.9c64.4-9.8,93.2-63.2,93.2-112c0-34.8-19.3-63.9-44.3-68.9
						c0-0.2,0-0.5,0-0.8c0-4.2-1.7-8.7-5.2-12.3c-3.5-3.5-7.7-5.2-12.3-5.2H128.1c-4.2,0-8.7,1.7-12.3,5.2
						c-3.5,3.5-5.2,7.7-5.2,12.3c0.8,93.7,17,188.4,112.3,226.5H115.6c-12.3,0-22.5,9.5-22.5,22.5c0,10.6,7,18.3,19.3,20.8
						l110.8,7.7c2.5,0,5.2,1.7,6,4.2c4.2,8.7,13.1,14,22.5,14h144.5c9.5,0,18.3-5.2,21.8-14c0.8-2.5,3.5-4.2,6-4.2l118.5-7.7h0.8
						c12.3-2.5,19.3-10.6,19.3-20.8C562.9,731.2,553.2,720.7,540.2,720.7L540.2,720.7z M546.2,513.2c14.8,5.2,26,26,26,50.6
						c0,34.1-15.8,74.9-59.1,89.6c0.8-1.2,1.5-2.5,2.3-3.7C539.7,608,544.7,557.3,546.2,513.2L546.2,513.2z M128.1,494.2H529
						c-0.8,117.7-26,226.5-200.4,226.5S128.8,611.7,128.1,494.2L128.1,494.2z M541.9,746.7l-116.7,7.8c-8.7,0.8-16.6,6-20.8,14
						c-1.7,2.5-4.2,4.2-7,4.2H251.8c-2.5,0-5.2-1.7-7-4.2c-4.2-7.7-12.3-13.1-20.8-14l-109-7.7c-4.2-0.8-4.2-2.5-4.2-3.5
						c0-2.5,2.5-5.2,5.2-5.2h425.2c2.5,0,5.2,2.5,5.2,5.2C546.2,744.2,546.2,746,541.9,746.7L541.9,746.7z"/>
				</g>
			</g>
		</g>
		<g>
			<g>
				<g>
					<defs>
						<polyline id="SVGID_5_" points="597.3,432.3 591.4,791.6 93,791.6 93,468.9 						"/>
					</defs>
					<clipPath id="SVGID_6_">
						<use xlink:href="#SVGID_5_"  style="overflow:visible;"/>
					</clipPath>
					<path class="st4" d="M215.3,397.5"/>
				</g>
			</g>
		</g>
	</g>
	<path d="M277.9,677c-61.9-10.6-93.2-45.3-106.2-115c-0.8-4.2-6-7.7-10.6-7c-4.2,0.8-7.7,6-7,10.6c14,77.7,51.4,116.7,120.2,129h1.7
		c4.2,0,7.7-2.5,8.7-7C285.7,682.4,282.4,678.1,277.9,677L277.9,677z"/>
</g>
<path d="M278.7,450.2c0,13.7-16,24.1-30.6,13.1l0,0c-11.5-14.5-1.2-30.8,12.7-30.8C270.6,432.4,278.7,440.4,278.7,450.2L278.7,450.2
	z"/>
<path d="M342.1,449.9c0,13.7-16,24.1-30.6,13.1l0,0c-11.5-14.5-1.2-30.8,12.7-30.8C334.2,432.3,342.1,440.1,342.1,449.9L342.1,449.9
	z"/>
<path d="M322,402.4c0,13.7-16,24.1-30.6,13.1l0,0c-11.5-14.5-1.2-30.8,12.7-30.8C314,384.5,322,392.6,322,402.4L322,402.4z"/>
<path d="M384.9,414.3c0,13.7-16,24.1-30.6,13.1l0,0c-11.5-14.5-1.2-30.8,12.7-30.8C376.8,396.5,384.9,404.6,384.9,414.3L384.9,414.3
	z"/>
<path class="st1" d="M546.8,513.8L546.8,513.8c14.8,5.2,26,26,26,50.6c0,34.1-15.8,74.9-59.1,89.6c0.8-1.2,1.5-2.5,2.3-3.7
	C540.2,608.5,545.2,557.8,546.8,513.8"/>
<path class="st0" d="M53.8,87L53.8,87L38,76.4c-6-5-10.6-12.5-11.8-21.2c-1.5-8.5,1-17.5,6-24.1c5-6,11.8-9.5,20.6-10.2
	c9.5-0.8,18.3,3.3,25.3,10l13.1,14.8l8.1,11.2c48.9,60.9,110,115.4,182.1,162.1l13.3,7.7c-6,2.7-10.6,6.2-15,11.5
	c-3.5,5-7,10.8-9,16.6C212.6,182.9,138,124.5,53.8,87"/>
</svg>
