<?xml version="1.0" encoding="utf-8"?>
<!-- Generator: Adobe Illustrator 21.1.0, SVG Export Plug-In . SVG Version: 6.00 Build 0)  -->
<svg version="1.1" id="Layer_1" xmlns="http://www.w3.org/2000/svg" xmlns:xlink="http://www.w3.org/1999/xlink" x="0px" y="0px"
	 viewBox="0 0 512.3 512.3" style="enable-background:new 0 0 512.3 512.3;" xml:space="preserve">
<style type="text/css">
	.st0{fill:#442608;stroke:#442608;stroke-miterlimit:10;}
	.st1{fill:#1D1D1D;}
	.st2{fill:#D60D0D;}
</style>
<path class="st0" d="M187.8,495.5L187.8,495.5c-24.7,0-48.6-6.8-70.8-18.8c-43.3-21.5-75.1-58.4-90.1-102.2
	c-3.9-11.6-6.6-23.7-8-36.1l18.8,21.3c11.1,11.1,29,11.1,40.1,0l8.5-8.5c12.8-12.8,33.3-12.8,46.1,0l8.5,8.5
	c11.1,11.1,29,11.1,40.1,0l8.5-8.5c12.8-12.8,33.3-12.8,46.1,0l8.5,8.5c11.1,11.1,29,11.1,40.1,0l8.5-8.5
	c12.8-12.8,33.3-12.8,46.1,0l7.7,7.7c11.1,11.1,29.9,11.1,41,0l20.5-20.5c-6.2,48.4-32.1,93-71.7,122.2c-0.2,0.2-0.4,0.3-0.6,0.5
	c-1.1,0.8-2.2,1.6-3.3,2.4c-0.8,0.6-1.6,1.1-2.4,1.7c-0.5,0.3-1,0.7-1.5,1c-1.5,1-3.1,2-4.7,3c-0.1,0-0.1,0.1-0.2,0.1
	c-2.7,1.6-5.4,3.2-8.2,4.7c-0.4,0.2-0.8,0.4-1.2,0.7c-1.2,0.6-2.4,1.3-3.6,1.9c-1.3,0.7-2.7,1.3-4,2c-18.8,11.1-43.5,17.1-67.4,17.1
	L187.8,495.5"/>
<g transform="translate(1 1)">
	<g>
		<g>
			<path class="st1" d="M349,96.1v-20c0-4.3-2.6-7.7-6-8.5L52.9-0.7c-3.4-0.9-6,0-8.5,2.6s-3.4,6-1.7,8.5L76,101.9v55.2
				c-49.1,36-76.8,93.7-76.8,158c0,2.3,0,4.7,0.1,7c2.5,72.3,43.8,136.5,108.3,168.8c24.7,13.7,52.1,20.5,79.4,20.5h51.2
				c26.5,0,54.6-6.8,77.7-18.8c67.4-32.4,111.8-102.4,111.8-177.5c0-2-0.6-3.7-1.8-5.1c-1.4-62.2-29-117.8-76.7-152.8v-5.7
				C417.9,184.2,460,249.3,460,323.6c0,5.1,3.4,8.5,8.5,8.5h34.1c5.1,0,8.5-3.4,8.5-8.5C511.2,220.7,448,131.7,349,96.1z M332,138.4
				v14.5H93v-42.7h239V138.4z M332,82.9v10.2H90.5L64,19.8L332,82.9z M186.9,494.3c-24.7,0-48.6-6.8-70.8-18.8
				C72.8,453.9,41,417,26,373.3c-3.9-11.6-6.6-23.7-8-36.1l18.8,21.3c11.1,11.1,29,11.1,40.1,0l8.5-8.5c12.8-12.8,33.3-12.8,46.1,0
				l8.5,8.5c11.1,11.1,29,11.1,40.1,0l8.5-8.5c12.8-12.8,33.3-12.8,46.1,0l8.5,8.5c11.1,11.1,29,11.1,40.1,0l8.5-8.5
				c12.8-12.8,33.3-12.8,46.1,0l7.7,7.7c11.1,11.1,29.9,11.1,41,0l20.5-20.5c-6.2,48.4-32.1,93-71.7,122.2c-0.2,0.2-0.4,0.3-0.6,0.5
				c-1.1,0.8-2.2,1.6-3.3,2.4c-0.8,0.6-1.6,1.1-2.4,1.7c-0.5,0.3-1,0.7-1.5,1c-1.5,1-3.1,2-4.7,3c-0.1,0-0.1,0.1-0.2,0.1
				c-2.7,1.6-5.4,3.2-8.2,4.7c-0.4,0.2-0.8,0.4-1.2,0.7c-1.2,0.6-2.4,1.3-3.6,1.9c-1.3,0.7-2.7,1.3-4,2
				c-18.8,11.1-43.5,17.1-67.4,17.1L186.9,494.3L186.9,494.3z M408.7,313.4l-32.4,32.4c-4.3,4.3-11.9,4.3-16.2,0l-7.7-7.7
				c-18.8-19.6-50.3-19.6-70,0l-8.5,8.5c-5.1,4.3-11.9,4.3-16.2,0l-8.5-8.5c-18.8-19.6-50.3-19.6-70,0l-8.5,8.5
				c-5.1,4.3-11.9,4.3-16.2,0l-8.5-8.5c-18.8-19.6-50.3-19.6-70,0l-8.5,8.5c-5.1,4.3-11.9,4.3-16.2,0l-34.9-34.9
				c0.9-58.3,26.4-109.9,70.8-141.7h250.9C382.7,202.1,408.3,254.3,408.7,313.4z M477,315.1c-3.4-80.2-51.2-149.3-128-182.6v-18.8
				c86.2,34.1,141.7,111.8,145.1,201.4L477,315.1L477,315.1z"/>
			<path class="st1" d="M141.7,383.3h-11.9c-11.1,0-19.6,8.5-19.6,19.6v11.9c0,11.1,8.5,19.6,19.6,19.6h11.9
				c11.1,0,19.6-8.5,19.6-19.6v-11.9C161.3,391.9,152.8,383.3,141.7,383.3z M144.2,414.9c0,1.7-0.9,2.6-2.6,2.6h-11.9
				c-1.7,0-2.6-0.9-2.6-2.6V403c0-1.7,0.9-2.6,2.6-2.6h11.9c1.7,0,2.6,0.9,2.6,2.6V414.9z"/>
			<path class="st1" d="M266.3,468.7h11.9c11.1,0,19.6-8.5,19.6-19.6v-11.9c0-11.1-8.5-19.6-19.6-19.6h-11.9
				c-11.1,0-19.6,8.5-19.6,19.6V449C246.6,460.1,255.2,468.7,266.3,468.7z M263.7,437.1c0-1.7,0.9-2.6,2.6-2.6h11.9
				c1.7,0,2.6,0.9,2.6,2.6V449c0,1.7-0.9,2.6-2.6,2.6h-11.9c-1.7,0-2.6-0.9-2.6-2.6V437.1L263.7,437.1z"/>
		</g>
	</g>
</g>
<polygon class="st2" points="333.5,139.4 333.5,153.9 94.5,153.9 94.5,111.3 333.5,111.3 "/>
<path class="st2" d="M478,316.6c-3.4-80.2-51.2-149.3-128-182.6v-18.8c86.2,34.1,141.7,111.8,145.1,201.4L478,316.6L478,316.6z"/>
</svg>
