<?xml version="1.0" encoding="utf-8"?>
<!-- Generator: Adobe Illustrator 21.1.0, SVG Export Plug-In . SVG Version: 6.00 Build 0)  -->
<svg version="1.1" id="Layer_1" xmlns="http://www.w3.org/2000/svg" xmlns:xlink="http://www.w3.org/1999/xlink" x="0px" y="0px"
	 viewBox="0 0 512.9 512.9" style="enable-background:new 0 0 512.9 512.9;" xml:space="preserve">
<style type="text/css">
	.st0{fill:#A5CBC3;stroke:#A5CBC3;stroke-miterlimit:10;}
	.st1{fill:#FFFFFF;stroke:#FFFFFF;stroke-miterlimit:10;}
</style>
<path class="st0" d="M243.2,193.7h161.7h44.9c-0.9,121.3-26.9,233.5-206.6,233.5S37.5,315,36.6,193.7h44.9H243.2"/>
<g transform="translate(1 1)">
	<g>
		<g>
			<path d="M189.4,381.2c-63.8-10.8-96.1-46.7-109.6-118.6c-0.9-4.5-6.3-8.1-10.8-7.2c-4.5,0.9-8.1,6.3-7.2,10.8
				c14.4,79.9,53,120.4,124,132.9c0.9,0,0.9,0,1.8,0c4.5,0,8.1-2.7,9-7.2C197.5,386.6,193.9,382.1,189.4,381.2z"/>
			<path d="M459.8,426.1H350c27.9-11.1,49.2-27,65.5-46.2c66.6-10,96.4-64.9,96.4-115.5c0-35.9-20-65.8-45.8-71c0-0.3,0-0.5,0-0.8
				c0-4.5-1.8-9-5.4-12.6c-2.7-3.6-8.1-5.4-12.6-5.4h-36.4c-4.2-42.6-37.6-76.6-80.4-80.8c-4.5-44.9-43.1-80.8-89.8-80.8
				s-85.3,35-89.8,80.8c-42,4.2-76.1,38.2-80.4,80.8H34.9c-4.5,0-9.9,1.8-12.6,5.4c-3.6,3.6-5.4,8.1-5.4,12.6
				c0.7,96,17.6,194.1,116.1,233.5H22.4C9.8,426.1-1,436.9-1,449.5c0,10.8,7.2,18.9,20.7,21.6l113.2,9c4.5,0,9.9,2.7,10.8,4.5
				l0.9,0.9c2.7,5.4,6.3,12.6,18,12.6h149.1c11.7,0,15.3-7.2,16.2-12.6l0.9-0.9c0.9-1.8,6.3-4.5,10.8-4.5l123.1-9h0.9
				c12.6-2.7,19.8-10.8,19.8-21.6C483.2,436.9,473.3,426.1,459.8,426.1z M493,264.4c0,35-16.2,77.2-61.1,92.5
				c26.9-44,32.3-97.9,34.1-144.6C481.4,217.7,493,239.3,493,264.4z M160.7,111.7c5.4,0,9-3.6,9-9c0-39.5,32.3-71.9,71.9-71.9
				s71.9,32.3,71.9,71.9c0,5.4,3.6,9,9,9c35.9,0,66.5,27.8,71,62.9H241.5H89.7C94.2,139.6,123.9,111.7,160.7,111.7z M34.9,192.6
				h44.9h161.7h161.7h44.9c-0.9,121.3-26.9,233.5-206.6,233.5S35.8,313.8,34.9,192.6z M461.6,453.1l-122.2,9
				c-6.3,0.9-19.8,4.5-25.2,14.4l-0.9,0.9c-0.9,0.9-1.8,1.8-1.8,2.7h-150c0-0.9-0.9-1.8-0.9-3.6l-0.9-0.9
				c-4.5-9.9-18.9-12.6-25.2-13.5l-113.2-9c-4.5-0.9-4.5-2.7-4.5-3.6c0-2.7,2.7-5.4,5.4-5.4h438.3c2.7,0,5.4,2.7,5.4,5.4
				C466.1,450.4,466.1,452.2,461.6,453.1z"/>
		</g>
	</g>
</g>
<path class="st0" d="M462.8,453.8l-122.2,9c-6.3,0.9-19.8,4.5-25.2,14.4l-0.9,0.9c-0.9,0.9-1.8,1.8-1.8,2.7h-150
	c0-0.9-0.9-1.8-0.9-3.6l-0.9-0.9c-4.5-9.9-18.9-12.6-25.2-13.5l-113.2-9c-4.5-0.9-4.5-2.7-4.5-3.6c0-2.7,2.7-5.4,5.4-5.4h438.3
	c2.7,0,5.4,2.7,5.4,5.4C467.3,451.1,467.3,452.9,462.8,453.8z"/>
<path class="st0" d="M494.9,266.4c0,35-16.2,77.2-61.1,92.5c26.9-44,32.3-97.9,34.1-144.6C483.2,219.7,494.9,241.3,494.9,266.4z"/>
<path class="st1" d="M243.2,176.2H91.4c4.5-35,34.1-62.9,71-62.9c5.4,0,9-3.6,9-9c0-39.5,32.3-71.9,71.9-71.9s71.9,32.3,71.9,71.9
	c0,5.4,3.6,9,9,9c35.9,0,66.5,27.8,71,62.9H243.2"/>
</svg>
