<?xml version="1.0" encoding="utf-8"?>
<!-- Generator: Adobe Illustrator 21.1.0, SVG Export Plug-In . SVG Version: 6.00 Build 0)  -->
<svg version="1.1" xmlns="http://www.w3.org/2000/svg" xmlns:xlink="http://www.w3.org/1999/xlink" x="0px" y="0px"
	 viewBox="0 0 512 512" style="enable-background:new 0 0 512 512;" xml:space="preserve">
<style type="text/css">
	.st0{fill:#A5CBC3;}
	.st1{fill:#1D1D1D;}
	.st2{fill:#5D5E5D;}
	.st3{fill:#D60D0D;}
</style>
<g id="Layer_1">
	<path class="st0" d="M55.5,119.5H38.4C43.5,62.3,91.3,17.1,149.3,17.1H320c58,0,105.8,45.2,110.9,102.4h-17.1H311.5H157.9H55.5"/>
	<path class="st0" d="M55.5,443.7h358.4h16.2c-4.3,29-29,51.2-58.9,51.2H98.1c-29.9,0-54.6-22.2-58.9-51.2H55.5"/>
	<g transform="translate(1 1)">
		<g>
			<g>
				<path class="st1" d="M464.1,152.6h-42.7v-17.1h17.1c5.1,0,8.5-3.4,8.5-8.5C447,56.2,389.8-1,319-1H148.3
					c-70.8,0-128,57.2-128,128c0,5.1,3.4,8.5,8.5,8.5h17.1v290.1H28.9c-5.1,0-8.5,3.4-8.5,8.5c0,42.7,34.1,76.8,76.8,76.8h273.1
					c42.7,0,76.8-34.1,76.8-76.8c0-5.1-3.4-8.5-8.5-8.5h-17.1V203.8h42.7c14.5,0,25.6-11.1,25.6-25.6S478.6,152.6,464.1,152.6z
					 M404.3,152.6h-51.2c-11.5,0-20.8,7-24.2,17.1H319v-34.1h85.3V152.6z M259.3,220.9h17.1v12.8c0,2.6-1.7,4.3-4.3,4.3h-8.5
					c-2.6,0-4.3-1.7-4.3-4.3V220.9z M276.3,203.8h-25.6h-34.1h-26.5c-13.7,0-24.7-11.1-24.7-24.7v-43.5h135.7v43.5
					C301.1,192.7,290,203.8,276.3,203.8z M191,220.9h17.1v12.8c0,2.6-1.7,4.3-4.3,4.3h-8.5c-2.6,0-4.3-1.7-4.3-4.3V220.9z
					 M148.3,16.1H319c58,0,105.8,45.2,110.9,102.4h-17.1H310.5H156.9H54.5H37.4C42.5,61.3,90.3,16.1,148.3,16.1z M370.2,493.9H97.1
					c-29.9,0-54.6-22.2-58.9-51.2h16.2h358.4h16.2C424.8,471.7,400.1,493.9,370.2,493.9z M351.4,315.6c18.8,3.4,18.8,11.9,18.8,16.2
					c0,17.9-22.2,41-40.1,48.6C341.2,360.8,348,339.5,351.4,315.6z M335.7,302.8c-0.3,0.8-0.5,1.6-0.5,2.5
					c-2.6,30.7-12.8,58.9-29,80.2c-0.2,0.3-0.4,0.6-0.5,0.9c-18.5,24.3-43.9,39.2-72,39.2c-54.6,0-99-56.3-102.4-128h204.8
					C336,299.4,335.9,301.1,335.7,302.8z M404.3,425.7H288.2c10.2-6.8,19.6-15.5,27.9-25.6c1,0,1.9,0,2.9,0
					c27.3,0,68.3-36.7,68.3-68.3c0-13.3-5.8-29.5-34.4-33.4c0.1-3.1,0.2-6.2,0.2-9.3c0-5.1-3.4-8.5-8.5-8.5H122.7
					c-5.1,0-8.5,3.4-8.5,8.5c0,59.2,26.4,110.9,64.9,136.5H63V135.5h85.3v43.5c0,17.3,10.6,32.2,25.6,38.5v16.1
					c0,11.9,9.4,21.3,21.3,21.3h8.5c11.9,0,21.3-9.4,21.3-21.3v-12.8h17.1v12.8c0,11.9,9.4,21.3,21.3,21.3h8.5
					c11.9,0,21.3-9.4,21.3-21.3v-16.1c12.7-5.4,22.3-16.9,24.9-30.9h10.6c3.4,10.1,12.7,17.1,24.2,17.1h51.2L404.3,425.7
					L404.3,425.7z M464.1,186.7h-51.2h-59.7c-5.1,0-8.5-3.4-8.5-8.5s3.4-8.5,8.5-8.5h59.7h51.2c5.1,0,8.5,3.4,8.5,8.5
					S469.2,186.7,464.1,186.7z"/>
				<path class="st1" d="M353.1,459.8H114.2c-5.1,0-8.5,3.4-8.5,8.5s3.4,8.5,8.5,8.5h238.9c5.1,0,8.5-3.4,8.5-8.5
					S358.3,459.8,353.1,459.8z"/>
				<path class="st1" d="M156.9,101.4h153.6c5.1,0,8.5-3.4,8.5-8.5V41.7c0-5.1-3.4-8.5-8.5-8.5H156.9c-5.1,0-8.5,3.4-8.5,8.5v51.2
					C148.3,98,151.7,101.4,156.9,101.4z M165.4,50.2h136.5v34.1H165.4V50.2z"/>
			</g>
		</g>
	</g>
	<path class="st0" d="M405.3,426.9L405.3,426.9H289.2c10.2-6.8,19.6-15.5,27.9-25.6c1,0,1.9,0,2.9,0c27.3,0,68.3-36.7,68.3-68.3
		c0-13.3-5.8-29.5-34.4-33.4c0.1-3.1,0.2-6.2,0.2-9.3c0-5.1-3.4-8.5-8.5-8.5H123.7c-5.1,0-8.5,3.4-8.5,8.5
		c0,59.2,26.4,110.9,64.9,136.5H64V136.7h85.3v43.5c0,17.3,10.6,32.2,25.6,38.5v16.1c0,11.9,9.4,21.3,21.3,21.3h8.5
		c11.9,0,21.3-9.4,21.3-21.3v-12.8h17.1v12.8c0,11.9,9.4,21.3,21.3,21.3h8.5c11.9,0,21.3-9.4,21.3-21.3v-16.1
		c12.7-5.4,22.3-16.9,24.9-30.9h10.6c3.4,10.1,12.7,17.1,24.2,17.1h51.2V426.9"/>
	<path class="st0" d="M405.3,153.8h-51.2c-11.5,0-20.8,7-24.2,17.1H320v-34.1h85.3V153.8z"/>
	<path class="st0" d="M371.2,331.8c0,17.9-22.2,41-40.1,48.6c11.1-19.6,17.9-41,21.3-64.9C371.2,319,371.2,327.5,371.2,331.8"/>
	<path class="st2" d="M277.8,205h-25.6H218h-26.5c-13.7,0-24.7-11.1-24.7-24.7v-43.5h135.7v43.5C302.5,193.9,291.4,205,277.8,205z"
		/>
	<path class="st2" d="M414.1,170.9h51.2c5.1,0,8.5,3.4,8.5,8.5s-3.4,8.5-8.5,8.5h-51.2h-59.7c-5.1,0-8.5-3.4-8.5-8.5
		s3.4-8.5,8.5-8.5H414.1"/>
	<path class="st2" d="M196.3,239.3c-2.6,0-4.3-1.7-4.3-4.3v-12.8h17.1v12.8c0,2.6-1.7,4.3-4.3,4.3H196.3"/>
	<path class="st2" d="M264.6,239.3c-2.6,0-4.3-1.7-4.3-4.3v-12.8h17.1v12.8c0,2.6-1.7,4.3-4.3,4.3H264.6"/>
</g>
<g id="Layer_4">
</g>
<g id="Layer_3">
	<path class="st3" d="M306.7,387.4c-18.5,24.3-43.9,39.2-72,39.2c-54.6,0-99-56.3-102.4-128h204.8c-0.1,1.7-0.2,3.5-0.3,5.2
		c-0.3,0.8-0.5,1.6-0.5,2.5c-2.6,30.7-12.8,58.9-29,80.2"/>
</g>
</svg>
