<?xml version="1.0" encoding="utf-8"?>
<!-- Generator: Adobe Illustrator 21.1.0, SVG Export Plug-In . SVG Version: 6.00 Build 0)  -->
<svg version="1.1" id="Layer_1" xmlns="http://www.w3.org/2000/svg" xmlns:xlink="http://www.w3.org/1999/xlink" x="0px" y="0px"
	 viewBox="0 0 512.5 512.5" style="enable-background:new 0 0 512.5 512.5;" xml:space="preserve">
<style type="text/css">
	.st0{fill:#442608;stroke:#442608;stroke-miterlimit:10;}
	.st1{fill:#381F08;stroke:#381F08;stroke-miterlimit:10;}
</style>
<g transform="translate(1)">
	<g>
		<g>
			<path d="M493.4,116c-0.7-1.4-1.8-2.5-3.2-3.2c-12.3-11.7-28.9-18.9-47.1-18.9h-8.5c-99,0-179.2,80.2-179.2,179.2
				c0,17.7,6.9,33.9,18,46.1c0.7,1.4,1.8,2.5,3.2,3.2c12.3,11.7,28.9,18.9,47.1,18.9h8.5c99,0,179.2-80.2,179.2-179.2
				C511.5,144.4,504.6,128.2,493.4,116z M434.7,110.9h8.5c13,0,25,5,34.1,13.1c-1.9,46.8-40.6,80.8-93.8,80.8
				c-52.7,0-96.7,36.5-108.1,85.1c-1.9-5.3-2.9-10.9-2.9-16.8C272.5,183.5,345.1,110.9,434.7,110.9z M332.3,324.3h-8.5
				c-13,0-25-5-34.1-13.1c1.9-49.5,43-89.3,93.8-89.3c54.6,0,96.8-31.1,108-76.8c1.9,5.3,2.9,11.1,2.9,17
				C494.4,251.7,421.9,324.3,332.3,324.3z"/>
			<path d="M104.4,283.3c10.2,4.3,20.5,6.8,30.7,6.8c6.5,0,13-0.9,19.3-2.6c1.1-0.1,2.2-0.4,3.1-0.9c17.2-5.5,32.6-17.2,41.6-34
				l4.3-7.7c21.3-41.8,24.7-88.7,9.4-133.1C196.6,65.7,162.5,29,117.2,7.7c-16.9-8.2-35.6-9.1-52.3-4.1c-1.8,0.1-3.5,0.6-4.9,1.6
				c-15.9,6-29.5,17.5-37.5,33.1l-4.3,7.7C-3.1,87.9-6.5,134.8,8.9,179.2C24.2,225.3,58.3,262,104.4,283.3z M195.7,116.9
				c13.7,40.1,11.1,82.8-8.5,120.3l-4.3,7.7c-5.9,11.4-16,19.9-27.7,24.5c-21.1-11.2-36.5-29.5-42.3-51c-6.8-23-1.7-47.8,11.9-69.1
				c0,0,0.9,0,0.9-0.9c21.3-47.7,5.9-100.6-35.2-131.2c6.6,0.5,12.8,2.2,19,4.9C150.5,41.8,181.2,75.1,195.7,116.9z M33.6,52.9
				l4.3-6.8c5.4-11.9,15.3-20.4,26.9-25c46.5,23,66.5,74.6,45.6,120.6c-16.2,24.7-21.3,55.5-13.7,82.8c5.4,19.2,16.3,35.9,31.8,48.5
				c-5.9-0.7-11.7-2.3-17.3-5c-41-19.6-71.7-52.9-86.2-94.7C11.4,133.1,14,90.4,33.6,52.9z"/>
			<path d="M284.5,363.5l-6-6c-75.1-70-191.1-66.6-259.4,6c-12.2,13-19.7,29.1-19.7,46c-0.6,1.9-0.6,3.9,0.3,5.6
				c1.5,17.5,9.1,32.7,22,44.8l6,6c35.8,30.7,81.9,46.1,127.1,46.1c48.6,0,96.4-17.9,132.3-52.9c12.8-13.7,20.5-30.7,19.6-48.6
				C305.8,392.5,298.1,375.5,284.5,363.5z M30.2,375.5c61.4-65.7,167.3-68.3,235.5-5.1l6.8,6c9.8,8.9,15.6,20.2,16.2,33.1
				c-40.9,36.8-86.4,34.9-127.1-6.6c-42.2-42.2-91.8-46.5-140.4-12.7C23.5,384.8,26.5,379.9,30.2,375.5z M38.7,453.1l-6-6
				c-9.5-8.7-15.3-19.7-16.1-32.1c47.3-41.3,92.2-41.1,133-0.3c24.7,24.7,52.1,37.5,79.4,37.5c18.3,0,36.7-5.7,54.4-17.4
				c-2.4,4.5-5.5,8.6-9.1,12.3C211.9,508.6,106.1,511.1,38.7,453.1z"/>
		</g>
	</g>
</g>
<path class="st0" d="M196.7,117.4c13.7,40.1,11.1,82.8-8.5,120.3l-4.3,7.7c-5.9,11.4-16,19.9-27.7,24.5
	c-21.1-11.2-36.5-29.5-42.3-51c-6.8-23-1.7-47.8,11.9-69.1c0,0,0.9,0,0.9-0.9c21.3-47.7,5.9-100.6-35.2-131.2
	c6.6,0.5,12.8,2.2,19,4.9C151.5,42.3,182.2,75.6,196.7,117.4z"/>
<path class="st1" d="M34.1,53.2l4.3-6.8c5.4-11.9,15.3-20.4,26.9-25c46.5,23,66.5,74.6,45.6,120.6c-16.2,24.7-21.3,55.5-13.7,82.8
	c5.4,19.2,16.3,35.9,31.8,48.5c-5.9-0.7-11.7-2.3-17.3-5c-41-19.6-71.7-52.9-86.2-94.7C11.9,133.4,14.5,90.8,34.1,53.2z"/>
<path class="st1" d="M436,110.7h8.5c13,0,25,5,34.1,13.1c-1.9,46.8-40.6,80.8-93.8,80.8c-52.7,0-96.7,36.5-108.1,85.1
	c-1.9-5.3-2.9-10.9-2.9-16.8C273.9,183.2,346.4,110.7,436,110.7z"/>
<path class="st0" d="M324.7,324.5c-13,0-25-5-34.1-13.1c1.9-49.5,43-89.3,93.8-89.3c54.6,0,96.8-31.1,108-76.8
	c1.9,5.3,2.9,11.1,2.9,17c0,89.6-72.5,162.1-162.1,162.1H324.7"/>
<path class="st0" d="M31.7,375.9c61.4-65.7,167.3-68.3,235.5-5.1l6.8,6c9.8,8.9,15.6,20.2,16.2,33.1c-40.9,36.8-86.4,34.9-127.1-6.6
	c-42.2-42.2-91.8-46.5-140.4-12.7C24.9,385.2,28,380.3,31.7,375.9z"/>
<path class="st1" d="M40.1,452.9l-6-6c-9.5-8.7-15.3-19.7-16.1-32.1c47.3-41.3,92.2-41.1,133-0.3c24.7,24.7,52.1,37.5,79.4,37.5
	c18.3,0,36.7-5.7,54.4-17.4c-2.4,4.5-5.5,8.6-9.1,12.3C213.3,508.4,107.5,511,40.1,452.9z"/>
</svg>
